<svg width="34" height="34" viewBox="0 0 34 34" fill="none" xmlns="http://www.w3.org/2000/svg">
<path d="M1.31755 30.2167L1.31769 30.2161L2.91957 24.0605C1.81916 21.8703 1.24672 19.4514 1.25001 16.9977M1.31755 30.2167L10.034 30.2835C12.1824 31.4117 14.5733 31.9995 17 31.9963M1.31755 30.2167C1.22893 30.5583 1.23112 30.917 1.3239 31.2575C1.41669 31.598 1.59684 31.9083 1.84649 32.1577C2.09615 32.407 2.40664 32.5869 2.74719 32.6793L2.94189 31.962L2.7472 32.6793C3.08773 32.7717 3.4465 32.7736 3.78797 32.6847C3.78799 32.6846 3.78801 32.6846 3.78802 32.6846L9.94614 31.0814L1.31755 30.2167ZM1.25001 16.9977C1.25001 16.9975 1.25001 16.9973 1.25001 16.9971L2.00001 16.9982M1.25001 16.9977C1.25001 16.9978 1.25001 16.998 1.25001 16.9982H2.00001M1.25001 16.9977C1.25029 8.30011 8.30155 1.25 17 1.25C25.6986 1.25 32.75 8.30038 32.75 16.9982C32.75 25.6956 25.6992 32.7458 17.001 32.7463C17.0007 32.7463 17.0003 32.7463 17 32.7463V31.9963M2.00001 16.9982C1.99667 19.428 2.58621 21.8219 3.71751 23.9723L17 31.9963M2.00001 16.9982C2.00001 8.71468 8.71551 2 17 2C25.2845 2 32 8.71468 32 16.9982C32 25.2817 25.2845 31.9963 17 31.9963M12.1507 19.248H18.8521L18.9456 19.2545C19.0282 19.27 19.1034 19.3129 19.1588 19.3765C19.2184 19.4448 19.2512 19.5323 19.2512 19.6228C19.2512 19.7134 19.2184 19.8009 19.1588 19.8692C19.1034 19.9328 19.0282 19.9757 18.9456 19.9912L18.8521 19.9977H12.1507L12.0557 19.9912C11.9732 19.9756 11.8981 19.9327 11.8427 19.8692C11.7831 19.8009 11.7504 19.7134 11.7504 19.6228C11.7504 19.5323 11.7831 19.4448 11.8427 19.3765C11.8981 19.313 11.9732 19.2701 12.0557 19.2545L12.1507 19.248ZM12.1507 13.9986H21.8493L21.9443 14.0051C22.0268 14.0207 22.1019 14.0636 22.1573 14.1272C22.2169 14.1955 22.2497 14.283 22.2497 14.3735C22.2497 14.464 22.2169 14.5515 22.1574 14.6198C22.1019 14.6834 22.0268 14.7262 21.9443 14.7418L21.8493 14.7484H12.1507L12.0557 14.7418C11.9732 14.7262 11.8981 14.6834 11.8427 14.6198C11.7831 14.5515 11.7504 14.464 11.7504 14.3735C11.7504 14.2829 11.7831 14.1955 11.8427 14.1272C11.8981 14.0636 11.9732 14.0207 12.0557 14.0051L12.1507 13.9986Z" fill="#E4006E" stroke="white" stroke-width="1.5"/>
</svg>
